<svg width="139" height="150" viewBox="0 0 139 150" fill="none" xmlns="http://www.w3.org/2000/svg">
<path fill-rule="evenodd" clip-rule="evenodd" d="M95.4946 49.0204L129.06 27.3037L120.074 13.4138L81.2246 38.5489L60.903 0L46.2687 7.71486L63.9823 41.3167L22.0854 31.0744L0 121.419L116.915 150L139 59.6559L95.4946 49.0204ZM34.227 51.0732L119.001 71.7976L104.773 130.001L19.9986 109.277L34.227 51.0732Z" fill="#8D5CE6"/>
<path fill-rule="evenodd" clip-rule="evenodd" d="M80.6067 107.931C81.3105 109.448 83.1087 110.113 84.6312 109.416C86.1584 108.717 86.8298 106.912 86.1307 105.385L83.3654 106.651C86.1307 105.385 86.1302 105.384 86.1297 105.383L86.1286 105.381L86.1262 105.375L86.1204 105.363L86.105 105.33L86.0594 105.235C86.0222 105.159 85.9715 105.059 85.9069 104.936C85.7778 104.69 85.5923 104.355 85.3478 103.956C84.8607 103.161 84.1282 102.095 83.1253 100.969C81.1293 98.7287 77.9517 96.1358 73.4183 95.1494C68.8848 94.163 64.9172 95.2013 62.1707 96.4099C60.7908 97.0171 59.6814 97.6829 58.9081 98.2034C58.5199 98.4647 58.2121 98.6923 57.9926 98.862C57.8828 98.9469 57.7947 99.0177 57.7293 99.0713L57.6484 99.1385L57.6209 99.1618L57.6104 99.1708L57.606 99.1746L57.604 99.1763C57.6031 99.1771 57.6022 99.1779 59.5916 101.478L57.6022 99.1779C56.3317 100.277 56.1925 102.197 57.2913 103.468C58.3865 104.734 60.2985 104.876 61.569 103.789L61.5866 103.774C61.6092 103.756 61.6519 103.721 61.7138 103.673C61.8378 103.577 62.0373 103.429 62.3044 103.249C62.8415 102.888 63.6341 102.411 64.6206 101.977C66.6068 101.103 69.2292 100.463 72.1251 101.093C75.0209 101.723 77.1402 103.395 78.5837 105.015C79.3007 105.82 79.8236 106.583 80.1619 107.135C80.3302 107.409 80.45 107.627 80.523 107.766C80.5594 107.835 80.5839 107.884 80.5967 107.911L80.6067 107.931Z" fill="#8D5CE6"/>
<path fill-rule="evenodd" clip-rule="evenodd" d="M49.3532 75.7339C49.7103 74.0927 51.3302 73.0517 52.9715 73.4088L53.0012 73.4153C54.6424 73.7724 55.6834 75.3923 55.3263 77.0336C54.9692 78.6748 53.3493 79.7158 51.708 79.3587L51.6783 79.3523C50.0371 78.9952 48.9961 77.3752 49.3532 75.7339Z" fill="#8D5CE6"/>
<path fill-rule="evenodd" clip-rule="evenodd" d="M67.1837 79.6138C67.5408 77.9726 69.1608 76.9316 70.802 77.2887L70.8318 77.2951C72.473 77.6523 73.514 79.2722 73.1569 80.9135C72.7998 82.5547 71.1798 83.5957 69.5386 83.2386L69.5089 83.2321C67.8676 82.875 66.8266 81.2551 67.1837 79.6138Z" fill="#8D5CE6"/>
</svg>
